<?xml version="1.0" standalone="no"?>
<!DOCTYPE svg PUBLIC "-//W3C//DTD SVG 20010904//EN"
 "http://www.w3.org/TR/2001/REC-SVG-20010904/DTD/svg10.dtd">
<svg version="1.0" xmlns="http://www.w3.org/2000/svg"
 width="260.000000pt" height="260.000000pt" viewBox="0 0 260.000000 260.000000"
 preserveAspectRatio="xMidYMid meet">
<metadata>
Created by potrace 1.11, written by Peter Selinger 2001-2013
</metadata>
<g transform="translate(0.000000,260.000000) scale(0.100000,-0.100000)"
fill="#000000" stroke="none">
<path d="M905 1885 c-215 -145 -298 -195 -320 -195 -53 -1 -210 -7 -220 -10
-5 -1 -64 -2 -130 -2 -66 0 -127 -4 -136 -9 -17 -9 -15 -54 2 -65 5 -3 9 -16
9 -30 0 -17 -5 -24 -20 -24 -22 0 -25 -12 -11 -39 5 -9 11 -30 13 -46 2 -17
12 -44 21 -62 9 -18 17 -34 17 -36 0 -2 -29 -22 -64 -46 l-65 -43 3 -52 c2
-32 13 -72 28 -102 23 -45 34 -70 69 -162 23 -64 106 -92 279 -96 214 -6 228
-9 343 -85 312 -206 374 -247 395 -258 12 -7 29 -19 38 -28 39 -38 85 -13 592
326 40 27 75 49 77 49 3 0 24 13 47 30 22 16 48 30 56 30 14 0 69 37 99 66 15
14 49 23 113 28 25 3 61 11 81 20 20 8 45 13 56 10 16 -4 24 1 35 23 8 16 22
28 33 29 29 1 55 14 55 28 0 15 79 90 105 100 29 11 -1 33 -55 41 -54 8 -188
91 -189 118 -1 23 11 22 27 -3 14 -23 39 -17 53 14 5 11 20 40 33 63 13 22 21
45 17 51 -7 10 -81 37 -93 34 -5 -1 -8 3 -8 9 0 5 -4 7 -10 4 -5 -3 -10 3 -10
13 0 25 -75 45 -170 45 -46 1 -69 5 -78 16 -8 9 -11 10 -7 4 4 -8 -1 -13 -12
-14 -10 0 -36 -3 -57 -5 -32 -4 -37 -3 -28 9 9 10 8 14 -3 14 -7 0 -13 -3 -12
-6 5 -14 -10 -12 -41 6 -17 10 -30 23 -28 28 2 6 -8 11 -22 12 -14 0 -31 8
-38 17 -6 9 -16 16 -23 16 -6 0 -11 5 -11 10 0 6 -7 10 -16 10 -14 0 -15 2 -3
18 13 15 12 16 -3 3 -15 -11 -22 -9 -55 16 -21 15 -75 53 -120 83 -44 30 -79
59 -76 64 4 5 1 6 -5 2 -6 -4 -64 29 -130 74 -65 44 -122 80 -127 80 -6 -1
-140 -88 -300 -195z m445 55 c3 -3 66 -45 140 -95 74 -49 137 -93 138 -97 2
-5 8 -8 13 -8 6 0 23 -10 39 -22 27 -20 28 -22 12 -34 -9 -8 -12 -14 -5 -14 6
0 15 5 18 10 9 15 16 13 70 -26 48 -34 49 -36 20 -33 -17 2 -36 0 -43 -4 -6
-5 -15 -6 -19 -4 -5 3 -48 8 -98 12 -49 3 -97 8 -105 10 -8 2 -51 7 -95 11
-44 3 -83 8 -86 10 -3 1 -57 6 -120 9 -63 3 -127 8 -142 11 -40 8 -331 18
-376 12 -3 0 -10 0 -15 1 -5 0 107 79 250 174 l259 174 70 -46 c38 -25 72 -48
75 -51z m950 -641 c0 -4 -7 -6 -15 -3 -8 4 -15 10 -15 15 0 4 7 6 15 3 8 -4
15 -10 15 -15z m-2190 -7 c0 -13 -23 -32 -39 -32 -11 0 -10 4 4 20 19 21 35
26 35 12z m1660 -401 c0 -5 -51 -41 -112 -82 -62 -40 -173 -113 -246 -161 -74
-49 -151 -100 -172 -113 l-37 -24 -34 24 c-19 13 -128 85 -244 161 -116 75
-214 141 -220 146 -6 6 23 9 75 7 47 -1 96 3 110 8 14 6 34 9 45 7 77 -13 369
-1 400 16 18 9 34 10 64 3 45 -12 243 -8 311 6 62 12 60 12 60 2z"/>
<path d="M1510 1800 c0 -5 5 -10 11 -10 5 0 7 5 4 10 -3 6 -8 10 -11 10 -2 0
-4 -4 -4 -10z"/>
<path d="M1475 1720 c3 -5 8 -10 11 -10 2 0 4 5 4 10 0 6 -5 10 -11 10 -5 0
-7 -4 -4 -10z"/>
<path d="M1995 2000 c-3 -5 -1 -10 4 -10 6 0 11 5 11 10 0 6 -2 10 -4 10 -3 0
-8 -4 -11 -10z"/>
<path d="M1659 1902 c-13 -15 -12 -16 3 -4 14 11 17 10 21 -5 4 -16 5 -16 6
-1 2 25 -15 30 -30 10z"/>
<path d="M1930 1839 c0 -5 5 -7 10 -4 6 3 10 8 10 11 0 2 -4 4 -10 4 -5 0 -10
-5 -10 -11z"/>
<path d="M1920 1795 c-7 -9 -10 -18 -6 -22 3 -3 6 -1 6 6 0 9 8 11 21 8 16 -4
18 -3 8 9 -14 17 -14 17 -29 -1z"/>
<path d="M2120 1799 c0 -5 5 -7 10 -4 6 3 10 8 10 11 0 2 -4 4 -10 4 -5 0 -10
-5 -10 -11z"/>
<path d="M1710 1789 c0 -5 5 -7 10 -4 6 3 10 8 10 11 0 2 -4 4 -10 4 -5 0 -10
-5 -10 -11z"/>
<path d="M2225 1770 c-3 -5 -1 -10 4 -10 6 0 11 5 11 10 0 6 -2 10 -4 10 -3 0
-8 -4 -11 -10z"/>
<path d="M2056 1695 c4 -8 8 -15 10 -15 2 0 4 7 4 15 0 8 -4 15 -10 15 -5 0
-7 -7 -4 -15z"/>
<path d="M2123 1664 c0 -16 6 -17 25 -5 11 6 9 9 -5 13 -12 3 -20 0 -20 -8z"/>
</g>
</svg>
